<svg xmlns="http://www.w3.org/2000/svg" viewBox="0 0 1024 1024">
  <path d="M232.256 91.792C142.928 91.792 70.4 164.272 70.4 253.632c0 89.328 72.512 161.84 161.84 161.84 89.36 0 161.84-72.512 161.84-161.84C394.096 164.272 321.648 91.792 232.256 91.792M232.256 329.184c-41.712 0-75.552-33.84-75.552-75.552 0-41.696 33.84-75.552 75.552-75.552 41.744 0 75.52 33.84 75.52 75.552C307.76 295.344 274 329.184 232.256 329.184" fill="#F39918"></path>
  <path d="M592.56 91.792c-89.328 0-161.84 72.48-161.84 161.84 0 89.328 72.512 161.84 161.84 161.84 89.376 0 161.888-72.512 161.888-161.84C754.448 164.272 682 91.792 592.56 91.792M592.56 329.184c-41.696 0-75.552-33.84-75.552-75.552 0-41.696 33.84-75.552 75.552-75.552 41.76 0 75.52 33.84 75.52 75.552C668.08 295.344 634.336 329.184 592.56 329.184" fill="#F39918"></path>
  <path d="M646.624 758.048 178.304 758.048c-20 0-36.272-16.32-36.272-36.272L142.032 489.808c0-19.888 16.288-36.208 36.272-36.208l468.336 0c19.872 0 36.272 16.32 36.272 36.208l0 231.968C682.896 741.728 666.496 758.048 646.624 758.048" fill="#F39918"></path>
  <path d="M718.624 499.712l46.032 0 0 212.176-46.032 0 0-212.176Z" fill="#F39918"></path>
  <path d="M946.368 785.264 796.992 711.888 796.992 499.712 946.368 426.336Z" fill="#F39918"></path>
  <path d="M198.688 967.552 143.536 967.552 260.112 792.96 315.28 792.96Z" fill="#F39918"></path>
  <path d="M626.048 967.552 681.248 967.552 564.736 792.96 509.648 792.96Z" fill="#F39918"></path>
</svg>
